<mxfile host="app.diagrams.net" agent="Mozilla/5.0 (Windows NT 10.0; Win64; x64) AppleWebKit/537.36 (KHTML, like Gecko) Chrome/127.0.0.0 Safari/537.36 OPR/113.0.0.0 (Edition Yx GX 03)" version="24.7.16">
  <diagram id="C5RBs43oDa-KdzZeNtuy" name="Page-1">
    <mxGraphModel dx="6184" dy="2080" grid="1" gridSize="10" guides="1" tooltips="1" connect="1" arrows="1" fold="1" page="1" pageScale="1" pageWidth="827" pageHeight="1169" math="0" shadow="0">
      <root>
        <mxCell id="WIyWlLk6GJQsqaUBKTNV-0" />
        <mxCell id="WIyWlLk6GJQsqaUBKTNV-1" parent="WIyWlLk6GJQsqaUBKTNV-0" />
        <mxCell id="yS-jFEkmzgCR18yHmHA6-1" style="edgeStyle=orthogonalEdgeStyle;rounded=0;orthogonalLoop=1;jettySize=auto;html=1;" edge="1" parent="WIyWlLk6GJQsqaUBKTNV-1" source="yS-jFEkmzgCR18yHmHA6-0">
          <mxGeometry relative="1" as="geometry">
            <mxPoint x="400" y="170" as="targetPoint" />
          </mxGeometry>
        </mxCell>
        <mxCell id="yS-jFEkmzgCR18yHmHA6-0" value="Создаём функцию движения по горизонтали и вертикали" style="rounded=1;whiteSpace=wrap;html=1;" vertex="1" parent="WIyWlLk6GJQsqaUBKTNV-1">
          <mxGeometry x="340" y="50" width="120" height="60" as="geometry" />
        </mxCell>
        <mxCell id="yS-jFEkmzgCR18yHmHA6-5" value="" style="edgeStyle=orthogonalEdgeStyle;rounded=0;orthogonalLoop=1;jettySize=auto;html=1;" edge="1" parent="WIyWlLk6GJQsqaUBKTNV-1" source="yS-jFEkmzgCR18yHmHA6-2" target="yS-jFEkmzgCR18yHmHA6-4">
          <mxGeometry relative="1" as="geometry" />
        </mxCell>
        <mxCell id="yS-jFEkmzgCR18yHmHA6-2" value="&lt;br&gt;&lt;span style=&quot;color: rgb(0, 0, 0); font-family: Helvetica; font-size: 12px; font-style: normal; font-variant-ligatures: normal; font-variant-caps: normal; font-weight: 400; letter-spacing: normal; orphans: 2; text-align: center; text-indent: 0px; text-transform: none; widows: 2; word-spacing: 0px; -webkit-text-stroke-width: 0px; white-space: normal; background-color: rgb(251, 251, 251); text-decoration-thickness: initial; text-decoration-style: initial; text-decoration-color: initial; display: inline !important; float: none;&quot;&gt;Создаём функцию движения по диагонали&lt;/span&gt;" style="rounded=1;whiteSpace=wrap;html=1;" vertex="1" parent="WIyWlLk6GJQsqaUBKTNV-1">
          <mxGeometry x="340" y="170" width="120" height="60" as="geometry" />
        </mxCell>
        <mxCell id="yS-jFEkmzgCR18yHmHA6-9" value="" style="edgeStyle=orthogonalEdgeStyle;rounded=0;orthogonalLoop=1;jettySize=auto;html=1;" edge="1" parent="WIyWlLk6GJQsqaUBKTNV-1" source="yS-jFEkmzgCR18yHmHA6-4" target="yS-jFEkmzgCR18yHmHA6-8">
          <mxGeometry relative="1" as="geometry" />
        </mxCell>
        <mxCell id="yS-jFEkmzgCR18yHmHA6-11" value="" style="edgeStyle=orthogonalEdgeStyle;rounded=0;orthogonalLoop=1;jettySize=auto;html=1;" edge="1" parent="WIyWlLk6GJQsqaUBKTNV-1" source="yS-jFEkmzgCR18yHmHA6-4" target="yS-jFEkmzgCR18yHmHA6-10">
          <mxGeometry relative="1" as="geometry" />
        </mxCell>
        <mxCell id="yS-jFEkmzgCR18yHmHA6-13" value="" style="edgeStyle=orthogonalEdgeStyle;rounded=0;orthogonalLoop=1;jettySize=auto;html=1;" edge="1" parent="WIyWlLk6GJQsqaUBKTNV-1" source="yS-jFEkmzgCR18yHmHA6-4" target="yS-jFEkmzgCR18yHmHA6-12">
          <mxGeometry relative="1" as="geometry" />
        </mxCell>
        <mxCell id="yS-jFEkmzgCR18yHmHA6-15" value="" style="edgeStyle=orthogonalEdgeStyle;rounded=0;orthogonalLoop=1;jettySize=auto;html=1;" edge="1" parent="WIyWlLk6GJQsqaUBKTNV-1" source="yS-jFEkmzgCR18yHmHA6-4" target="yS-jFEkmzgCR18yHmHA6-14">
          <mxGeometry relative="1" as="geometry" />
        </mxCell>
        <mxCell id="yS-jFEkmzgCR18yHmHA6-17" value="" style="edgeStyle=orthogonalEdgeStyle;rounded=0;orthogonalLoop=1;jettySize=auto;html=1;" edge="1" parent="WIyWlLk6GJQsqaUBKTNV-1" source="yS-jFEkmzgCR18yHmHA6-4" target="yS-jFEkmzgCR18yHmHA6-16">
          <mxGeometry relative="1" as="geometry" />
        </mxCell>
        <mxCell id="yS-jFEkmzgCR18yHmHA6-19" value="" style="edgeStyle=orthogonalEdgeStyle;rounded=0;orthogonalLoop=1;jettySize=auto;html=1;" edge="1" parent="WIyWlLk6GJQsqaUBKTNV-1" source="yS-jFEkmzgCR18yHmHA6-4" target="yS-jFEkmzgCR18yHmHA6-18">
          <mxGeometry relative="1" as="geometry" />
        </mxCell>
        <mxCell id="yS-jFEkmzgCR18yHmHA6-4" value="Создаём функцию для движения для каждой фигуры" style="whiteSpace=wrap;html=1;rounded=1;shape=rhombus;perimeter=rhombusPerimeter;" vertex="1" parent="WIyWlLk6GJQsqaUBKTNV-1">
          <mxGeometry x="280" y="310" width="240" height="220" as="geometry" />
        </mxCell>
        <mxCell id="yS-jFEkmzgCR18yHmHA6-31" style="edgeStyle=orthogonalEdgeStyle;rounded=0;orthogonalLoop=1;jettySize=auto;html=1;entryX=1;entryY=0.5;entryDx=0;entryDy=0;" edge="1" parent="WIyWlLk6GJQsqaUBKTNV-1" source="yS-jFEkmzgCR18yHmHA6-8" target="yS-jFEkmzgCR18yHmHA6-26">
          <mxGeometry relative="1" as="geometry">
            <Array as="points">
              <mxPoint x="860" y="890" />
              <mxPoint x="700" y="890" />
              <mxPoint x="700" y="1050" />
            </Array>
          </mxGeometry>
        </mxCell>
        <mxCell id="yS-jFEkmzgCR18yHmHA6-8" value="по диагонали, вертикали или горизонтали на 1 клетку" style="whiteSpace=wrap;html=1;rounded=1;" vertex="1" parent="WIyWlLk6GJQsqaUBKTNV-1">
          <mxGeometry x="800" y="630" width="120" height="60" as="geometry" />
        </mxCell>
        <mxCell id="yS-jFEkmzgCR18yHmHA6-30" style="edgeStyle=orthogonalEdgeStyle;rounded=0;orthogonalLoop=1;jettySize=auto;html=1;" edge="1" parent="WIyWlLk6GJQsqaUBKTNV-1" source="yS-jFEkmzgCR18yHmHA6-10">
          <mxGeometry relative="1" as="geometry">
            <mxPoint x="440" y="1020" as="targetPoint" />
            <Array as="points">
              <mxPoint x="570" y="870" />
              <mxPoint x="441" y="870" />
            </Array>
          </mxGeometry>
        </mxCell>
        <mxCell id="yS-jFEkmzgCR18yHmHA6-10" value="Изменение по буквам равно 2, по цифрам 1; или изменение по буквам равно 1, по цифрам 2" style="whiteSpace=wrap;html=1;rounded=1;" vertex="1" parent="WIyWlLk6GJQsqaUBKTNV-1">
          <mxGeometry x="480" y="620" width="190" height="100" as="geometry" />
        </mxCell>
        <mxCell id="yS-jFEkmzgCR18yHmHA6-29" style="edgeStyle=orthogonalEdgeStyle;rounded=0;orthogonalLoop=1;jettySize=auto;html=1;entryX=0.5;entryY=0;entryDx=0;entryDy=0;" edge="1" parent="WIyWlLk6GJQsqaUBKTNV-1" source="yS-jFEkmzgCR18yHmHA6-12" target="yS-jFEkmzgCR18yHmHA6-26">
          <mxGeometry relative="1" as="geometry">
            <Array as="points">
              <mxPoint x="440" y="660" />
            </Array>
          </mxGeometry>
        </mxCell>
        <mxCell id="yS-jFEkmzgCR18yHmHA6-12" value="Буквы или цифры не меняются" style="whiteSpace=wrap;html=1;rounded=1;" vertex="1" parent="WIyWlLk6GJQsqaUBKTNV-1">
          <mxGeometry x="90" y="630" width="120" height="60" as="geometry" />
        </mxCell>
        <mxCell id="yS-jFEkmzgCR18yHmHA6-27" value="" style="edgeStyle=orthogonalEdgeStyle;rounded=0;orthogonalLoop=1;jettySize=auto;html=1;" edge="1" parent="WIyWlLk6GJQsqaUBKTNV-1" source="yS-jFEkmzgCR18yHmHA6-14" target="yS-jFEkmzgCR18yHmHA6-26">
          <mxGeometry relative="1" as="geometry">
            <Array as="points">
              <mxPoint x="-330" y="1050" />
            </Array>
          </mxGeometry>
        </mxCell>
        <mxCell id="yS-jFEkmzgCR18yHmHA6-14" value="Буквы не меняются, цифра меняется на 1" style="whiteSpace=wrap;html=1;rounded=1;" vertex="1" parent="WIyWlLk6GJQsqaUBKTNV-1">
          <mxGeometry x="-390" y="630" width="120" height="60" as="geometry" />
        </mxCell>
        <mxCell id="yS-jFEkmzgCR18yHmHA6-32" style="edgeStyle=orthogonalEdgeStyle;rounded=0;orthogonalLoop=1;jettySize=auto;html=1;" edge="1" parent="WIyWlLk6GJQsqaUBKTNV-1" source="yS-jFEkmzgCR18yHmHA6-16">
          <mxGeometry relative="1" as="geometry">
            <mxPoint x="500" y="1050" as="targetPoint" />
            <Array as="points">
              <mxPoint x="1090" y="1050" />
            </Array>
          </mxGeometry>
        </mxCell>
        <mxCell id="yS-jFEkmzgCR18yHmHA6-16" value="по диагонали или вертикали" style="whiteSpace=wrap;html=1;rounded=1;" vertex="1" parent="WIyWlLk6GJQsqaUBKTNV-1">
          <mxGeometry x="1030" y="630" width="120" height="60" as="geometry" />
        </mxCell>
        <mxCell id="yS-jFEkmzgCR18yHmHA6-28" style="edgeStyle=orthogonalEdgeStyle;rounded=0;orthogonalLoop=1;jettySize=auto;html=1;" edge="1" parent="WIyWlLk6GJQsqaUBKTNV-1" source="yS-jFEkmzgCR18yHmHA6-18">
          <mxGeometry relative="1" as="geometry">
            <mxPoint x="380" y="1050" as="targetPoint" />
            <Array as="points">
              <mxPoint x="-100" y="960" />
              <mxPoint x="381" y="960" />
            </Array>
          </mxGeometry>
        </mxCell>
        <mxCell id="yS-jFEkmzgCR18yHmHA6-18" value="Изменения по диагонали для букв и цифр равны" style="whiteSpace=wrap;html=1;rounded=1;" vertex="1" parent="WIyWlLk6GJQsqaUBKTNV-1">
          <mxGeometry x="-160" y="640" width="120" height="60" as="geometry" />
        </mxCell>
        <mxCell id="yS-jFEkmzgCR18yHmHA6-20" value="пешка" style="text;html=1;align=center;verticalAlign=middle;whiteSpace=wrap;rounded=0;" vertex="1" parent="WIyWlLk6GJQsqaUBKTNV-1">
          <mxGeometry x="-320" y="600" width="60" height="30" as="geometry" />
        </mxCell>
        <mxCell id="yS-jFEkmzgCR18yHmHA6-21" value="слон" style="text;html=1;align=center;verticalAlign=middle;whiteSpace=wrap;rounded=0;" vertex="1" parent="WIyWlLk6GJQsqaUBKTNV-1">
          <mxGeometry x="-100" y="610" width="60" height="30" as="geometry" />
        </mxCell>
        <mxCell id="yS-jFEkmzgCR18yHmHA6-22" value="конь" style="text;html=1;align=center;verticalAlign=middle;whiteSpace=wrap;rounded=0;" vertex="1" parent="WIyWlLk6GJQsqaUBKTNV-1">
          <mxGeometry x="590" y="600" width="60" height="30" as="geometry" />
        </mxCell>
        <mxCell id="yS-jFEkmzgCR18yHmHA6-23" value="ладья" style="text;html=1;align=center;verticalAlign=middle;whiteSpace=wrap;rounded=0;" vertex="1" parent="WIyWlLk6GJQsqaUBKTNV-1">
          <mxGeometry x="150" y="600" width="60" height="30" as="geometry" />
        </mxCell>
        <mxCell id="yS-jFEkmzgCR18yHmHA6-24" value="король" style="text;html=1;align=center;verticalAlign=middle;whiteSpace=wrap;rounded=0;" vertex="1" parent="WIyWlLk6GJQsqaUBKTNV-1">
          <mxGeometry x="860" y="600" width="60" height="30" as="geometry" />
        </mxCell>
        <mxCell id="yS-jFEkmzgCR18yHmHA6-25" value="королева" style="text;html=1;align=center;verticalAlign=middle;whiteSpace=wrap;rounded=0;" vertex="1" parent="WIyWlLk6GJQsqaUBKTNV-1">
          <mxGeometry x="1080" y="600" width="60" height="30" as="geometry" />
        </mxCell>
        <mxCell id="yS-jFEkmzgCR18yHmHA6-35" value="" style="edgeStyle=orthogonalEdgeStyle;rounded=0;orthogonalLoop=1;jettySize=auto;html=1;" edge="1" parent="WIyWlLk6GJQsqaUBKTNV-1" source="yS-jFEkmzgCR18yHmHA6-26" target="yS-jFEkmzgCR18yHmHA6-34">
          <mxGeometry relative="1" as="geometry" />
        </mxCell>
        <mxCell id="yS-jFEkmzgCR18yHmHA6-26" value="Создаём функцию, определяющую фигуру" style="whiteSpace=wrap;html=1;rounded=1;" vertex="1" parent="WIyWlLk6GJQsqaUBKTNV-1">
          <mxGeometry x="380" y="1020" width="120" height="60" as="geometry" />
        </mxCell>
        <mxCell id="yS-jFEkmzgCR18yHmHA6-37" value="" style="edgeStyle=orthogonalEdgeStyle;rounded=0;orthogonalLoop=1;jettySize=auto;html=1;" edge="1" parent="WIyWlLk6GJQsqaUBKTNV-1" source="yS-jFEkmzgCR18yHmHA6-34" target="yS-jFEkmzgCR18yHmHA6-36">
          <mxGeometry relative="1" as="geometry" />
        </mxCell>
        <mxCell id="yS-jFEkmzgCR18yHmHA6-34" value="Создаём список букв(от A до H)" style="whiteSpace=wrap;html=1;rounded=1;" vertex="1" parent="WIyWlLk6GJQsqaUBKTNV-1">
          <mxGeometry x="380" y="1240" width="120" height="60" as="geometry" />
        </mxCell>
        <mxCell id="yS-jFEkmzgCR18yHmHA6-39" value="" style="edgeStyle=orthogonalEdgeStyle;rounded=0;orthogonalLoop=1;jettySize=auto;html=1;" edge="1" parent="WIyWlLk6GJQsqaUBKTNV-1" source="yS-jFEkmzgCR18yHmHA6-36" target="yS-jFEkmzgCR18yHmHA6-38">
          <mxGeometry relative="1" as="geometry" />
        </mxCell>
        <mxCell id="yS-jFEkmzgCR18yHmHA6-36" value="Принимаем от пользователя траекторию, которую надо проверить и саму фигуру" style="whiteSpace=wrap;html=1;rounded=1;" vertex="1" parent="WIyWlLk6GJQsqaUBKTNV-1">
          <mxGeometry x="350" y="1380" width="180" height="100" as="geometry" />
        </mxCell>
        <mxCell id="yS-jFEkmzgCR18yHmHA6-41" value="" style="edgeStyle=orthogonalEdgeStyle;rounded=0;orthogonalLoop=1;jettySize=auto;html=1;" edge="1" parent="WIyWlLk6GJQsqaUBKTNV-1" source="yS-jFEkmzgCR18yHmHA6-38" target="yS-jFEkmzgCR18yHmHA6-40">
          <mxGeometry relative="1" as="geometry" />
        </mxCell>
        <mxCell id="yS-jFEkmzgCR18yHmHA6-38" value="Делим траекторию на начальную и конечную клетку" style="whiteSpace=wrap;html=1;rounded=1;" vertex="1" parent="WIyWlLk6GJQsqaUBKTNV-1">
          <mxGeometry x="380" y="1580" width="120" height="60" as="geometry" />
        </mxCell>
        <mxCell id="yS-jFEkmzgCR18yHmHA6-43" value="" style="edgeStyle=orthogonalEdgeStyle;rounded=0;orthogonalLoop=1;jettySize=auto;html=1;" edge="1" parent="WIyWlLk6GJQsqaUBKTNV-1" source="yS-jFEkmzgCR18yHmHA6-40" target="yS-jFEkmzgCR18yHmHA6-42">
          <mxGeometry relative="1" as="geometry" />
        </mxCell>
        <mxCell id="yS-jFEkmzgCR18yHmHA6-40" value="Делим клетки на координаты по буквам и цифрам" style="whiteSpace=wrap;html=1;rounded=1;" vertex="1" parent="WIyWlLk6GJQsqaUBKTNV-1">
          <mxGeometry x="380" y="1720" width="120" height="60" as="geometry" />
        </mxCell>
        <mxCell id="yS-jFEkmzgCR18yHmHA6-45" value="" style="edgeStyle=orthogonalEdgeStyle;rounded=0;orthogonalLoop=1;jettySize=auto;html=1;" edge="1" parent="WIyWlLk6GJQsqaUBKTNV-1" source="yS-jFEkmzgCR18yHmHA6-42" target="yS-jFEkmzgCR18yHmHA6-44">
          <mxGeometry relative="1" as="geometry" />
        </mxCell>
        <mxCell id="yS-jFEkmzgCR18yHmHA6-42" value="Переводим буквы в цифры (A-1,B-2...)" style="whiteSpace=wrap;html=1;rounded=1;" vertex="1" parent="WIyWlLk6GJQsqaUBKTNV-1">
          <mxGeometry x="380" y="1860" width="120" height="60" as="geometry" />
        </mxCell>
        <mxCell id="yS-jFEkmzgCR18yHmHA6-47" value="" style="edgeStyle=orthogonalEdgeStyle;rounded=0;orthogonalLoop=1;jettySize=auto;html=1;" edge="1" parent="WIyWlLk6GJQsqaUBKTNV-1" source="yS-jFEkmzgCR18yHmHA6-44" target="yS-jFEkmzgCR18yHmHA6-46">
          <mxGeometry relative="1" as="geometry" />
        </mxCell>
        <mxCell id="yS-jFEkmzgCR18yHmHA6-44" value="Запускаем функцию по определению фигуры" style="whiteSpace=wrap;html=1;rounded=1;" vertex="1" parent="WIyWlLk6GJQsqaUBKTNV-1">
          <mxGeometry x="380" y="2000" width="120" height="60" as="geometry" />
        </mxCell>
        <mxCell id="yS-jFEkmzgCR18yHmHA6-49" value="" style="edgeStyle=orthogonalEdgeStyle;rounded=0;orthogonalLoop=1;jettySize=auto;html=1;" edge="1" parent="WIyWlLk6GJQsqaUBKTNV-1" source="yS-jFEkmzgCR18yHmHA6-46" target="yS-jFEkmzgCR18yHmHA6-48">
          <mxGeometry relative="1" as="geometry" />
        </mxCell>
        <mxCell id="yS-jFEkmzgCR18yHmHA6-46" value="Она запускает функции для определения возможного движения" style="whiteSpace=wrap;html=1;rounded=1;" vertex="1" parent="WIyWlLk6GJQsqaUBKTNV-1">
          <mxGeometry x="370" y="2140" width="140" height="70" as="geometry" />
        </mxCell>
        <mxCell id="yS-jFEkmzgCR18yHmHA6-48" value="Выводим ответ (Да, если фигура может оказаться в клетке, указанной пользователем; нет, если не может" style="whiteSpace=wrap;html=1;rounded=1;" vertex="1" parent="WIyWlLk6GJQsqaUBKTNV-1">
          <mxGeometry x="340" y="2270" width="200" height="185" as="geometry" />
        </mxCell>
      </root>
    </mxGraphModel>
  </diagram>
</mxfile>
